# xmcd CD database file
#
# Track frame offsets:
#	150
#	22275
#	43080
#	70360
#	83935
#	100765
#	114853
#	125634
#	140903
#	163565
#	185408
#	200916
#	218609
#	235750
#	247375
#	258435
#	284984
#	306301
#
# Disc length: 4440 seconds
#
# Revision: 0
# Processed by: cddbd v1.4PL0 Copyright (c) Steve Scherf et al.
# Submitted via: CDex 1.50
#
DISCID=23115612
DTITLE=diverse artists - Hessen Jazz Idstein 2002
DYEAR=2002
DGENRE=Jazz
TTITLE0=big band jazz-club Limburg - Brass Machine
TTITLE1=Steppin´out - Keep it to yourself
TTITLE2=OUT-POINT - Novadesk
TTITLE3=SKIFFLE TRAIN - Finnegans Wake
TTITLE4=just friends - Armando´s rhumba
TTITLE5=Rodgau Jazz Big Band - everyday I have the blues
TTITLE6=VokaLiesen - Flying
TTITLE7=Swing-Soze-Orchestra - pennies from the heaven
TTITLE8=Bachmann-Mandler-Ensemble - Voodoo
TTITLE9=Sloppy-Notes-Jazz-Band - Georgia on my mind
TTITLE10=Lohnes-Bozen-Seitz - Ashanti
TTITLE11=Zopponection - Recorda-Me
TTITLE12=Jumping Daddies - It had to be you Idstein
TTITLE13=IKS Big Band - Honeysuckle rose
TTITLE14=Double Trouble - Hound Dog (live)
TTITLE15=Seven-at-Jazz Caravan
TTITLE16=merichando - Ese Hombre
TTITLE17=Messiahs Gospel Messengers - Over my head I hear music
EXTD=YEAR: 2002
EXTT0=
EXTT1=
EXTT2=
EXTT3=
EXTT4=
EXTT5=
EXTT6=
EXTT7=
EXTT8=
EXTT9=
EXTT10=
EXTT11=
EXTT12=
EXTT13=
EXTT14=
EXTT15=
EXTT16=
EXTT17=
PLAYORDER=
